<svg version="1.1" viewBox="0 0 105.8 105.8" xmlns="http://www.w3.org/2000/svg" id="logo">
    <g transform="translate(0 -191.2)">
        <path d="m49.22 191.8c-20.74 1.286-39.81 16.07-46.06 35.94-7.192 20.82 0.648 45.64 18.55 58.47 16.77 12.89 41.42 13.75 59.16 2.268 18.58-11.43 28.39-35.23 22.98-56.42-4.596-21-23.43-37.75-44.77-39.99-3.258-0.3932-6.577-0.4621-9.854-0.2713z" fill="none" stroke="#ea526f" stroke-width="1.009" class="ZLcHdItS_0"></path>
        <a fill="#ffffff">
            <path d="m35.6 207.5-13.86 44.33h5.178l3.307-11.37h16.11l10.31 36.92h14.81c4.623 0 7.867-1.15 9.729-3.451 1.863-2.301 2.204-5.562 1.025-9.783-0.896-3.208-2.406-5.878-4.53-8.01-2.112-2.153-4.634-3.567-7.567-4.243 2.166-0.4222 3.6-1.489 4.301-3.198 0.7014-1.71 0.6485-4.01-0.1592-6.902-1.043-3.736-2.999-6.618-5.868-8.644-2.868-2.026-6.43-3.04-10.68-3.04h-9.478l-7.056-22.61zm2.772 5.909 5.21 17.19 1.361 4.871h-13.23zm12.12 21.96h8.261c2.726 0 4.917 0.591 6.574 1.773 1.675 1.182 2.845 2.965 3.511 5.351 0.672 2.406 0.5008 4.201-0.5137 5.383-1.002 1.161-2.866 1.741-5.592 1.741h-8.261zm5.429 19.44h8.952c3.002 0 5.42 0.7071 7.251 2.121 1.844 1.393 3.179 3.567 4.004 6.523 0.8194 2.934 0.7018 5.119-0.3524 6.554-1.042 1.414-3.064 2.121-6.066 2.121h-8.952z" fill="#ffffff" stroke="#ffffff" stroke-linecap="round" stroke-linejoin="round" stroke-width="1.076" class="ZLcHdItS_1"></path>
        </a>
    </g>
    <style>.ZLcHdItS_0{stroke-dasharray:330 332;stroke-dashoffset:331;animation:ZLcHdItS_draw 1000ms ease-out 0ms forwards;}.ZLcHdItS_1{fill-opacity:0;stroke-dasharray:426 428;stroke-dashoffset:427;animation:ZLcHdItS_draw 1800ms ease 200ms forwards;}@keyframes ZLcHdItS_draw{100%{stroke-dashoffset:0;fill-opacity: 0;}}@keyframes ZLcHdItS_fade{0%{stroke-opacity:1;}94.44444444444444%{stroke-opacity:1;}100%{stroke-opacity:0;}}</style>
</svg>